<svg width="717.6162353515625px" height="121.40498046875px" xmlns="http://www.w3.org/2000/svg" viewBox="-108.80811767578126 14.297509765625001 717.6162353515625 121.40498046875" style="background: rgba(0, 0, 0, 0);" preserveAspectRatio="xMidYMid"><defs><filter id="editing-hole" x="-100%" y="-100%" width="300%" height="300%"><feFlood flood-color="#000" result="black"></feFlood><feMorphology operator="dilate" radius="2" in="SourceGraphic" result="erode"></feMorphology><feGaussianBlur in="erode" stdDeviation="4" result="blur"></feGaussianBlur><feOffset in="blur" dx="2" dy="2" result="offset"></feOffset><feComposite operator="atop" in="offset" in2="black" result="merge"></feComposite><feComposite operator="in" in="merge" in2="SourceGraphic" result="inner-shadow"></feComposite></filter></defs><g filter="url(#editing-hole)"><g transform="translate(-6.032823443412781, 99)"><path d="M6.53 0L-0.83 0L10.75-42.24L24.13-42.24L27.07-18.11L38.98-42.24L50.18-42.24L51.33-10.62L51.33-10.62Q51.58-4.35 54.66-2.43L54.66-2.43L54.66-2.43Q53.95-1.15 51.90 0.06L51.90 0.06L51.90 0.06Q49.86 1.28 47.14 1.28L47.14 1.28L47.14 1.28Q44.42 1.28 42.82 0.51L42.82 0.51L42.82 0.51Q41.22-0.26 40.32-1.54L40.32-1.54L40.32-1.54Q38.72-3.84 38.72-8.26L38.72-8.26L38.72-28.03L26.11 0L18.18 0L13.70-28.74L6.53 0ZM72.77-3.52L72.77-3.52L72.77-3.52Q70.78 1.28 64.45 1.28L64.45 1.28L64.45 1.28Q61.18 1.28 59.14-0.96L59.14-0.96L59.14-0.96Q57.41-2.94 57.41-4.93L57.41-4.93L57.41-4.93Q57.41-10.11 59.78-20.22L59.78-20.22L62.14-32.64L75.14-33.92L71.23-13.70L71.23-13.70Q70.14-8.96 70.14-7.30L70.14-7.30L70.14-7.30Q70.14-3.65 72.77-3.52ZM63.30-41.54L63.30-41.54L63.30-41.54Q63.30-44.03 65.38-45.38L65.38-45.38L65.38-45.38Q67.46-46.72 70.46-46.72L70.46-46.72L70.46-46.72Q73.47-46.72 75.30-45.38L75.30-45.38L75.30-45.38Q77.12-44.03 77.12-41.54L77.12-41.54L77.12-41.54Q77.12-39.04 75.10-37.76L75.10-37.76L75.10-37.76Q73.09-36.48 70.08-36.48L70.08-36.48L70.08-36.48Q67.07-36.48 65.18-37.76L65.18-37.76L65.18-37.76Q63.30-39.04 63.30-41.54ZM109.63-26.62L109.63-26.62L109.63-26.62Q109.63-23.94 107.39-22.27L107.39-22.27L107.39-22.27Q105.15-20.61 101.50-20.61L101.50-20.61L101.50-20.61Q99.97-20.61 99.07-21.06L99.07-21.06L99.07-21.06Q99.78-22.72 100-24.80L100-24.80L100-24.80Q100.22-26.88 100.22-27.46L100.22-27.46L100.22-27.46Q100.22-30.14 98.37-30.14L98.37-30.14L98.37-30.14Q97.09-30.14 95.65-28.54L95.65-28.54L95.65-28.54Q94.21-26.94 92.99-24.45L92.99-24.45L92.99-24.45Q90.30-18.69 90.30-12.86L90.30-12.86L90.30-12.86Q90.30-9.66 91.52-8.22L91.52-8.22L91.52-8.22Q92.74-6.78 95.42-6.78L95.42-6.78L95.42-6.78Q99.14-6.78 102.08-9.86L102.08-9.86L102.08-9.86Q102.91-10.82 103.36-11.90L103.36-11.90L103.36-11.90Q105.79-10.62 105.79-7.10L105.79-7.10L105.79-7.10Q105.79-3.52 101.82-1.15L101.82-1.15L101.82-1.15Q97.73 1.28 91.20 1.28L91.20 1.28L91.20 1.28Q78.21 1.28 78.21-12.48L78.21-12.48L78.21-12.48Q78.21-22.53 83.90-28.29L83.90-28.29L83.90-28.29Q89.41-33.92 99.52-33.92L99.52-33.92L99.52-33.92Q109.63-33.92 109.63-26.62ZM143.55-7.10L143.55-7.10L143.55-7.10Q143.55-4.29 146.43-3.46L146.43-3.46L146.43-3.46Q145.73-1.09 142.98 0.19L142.98 0.19L142.98 0.19Q140.67 1.28 138.14 1.28L138.14 1.28L138.14 1.28Q135.62 1.28 134.30 0.61L134.30 0.61L134.30 0.61Q132.99-0.06 132.29-1.15L132.29-1.15L132.29-1.15Q131.14-2.82 131.14-5.95L131.14-5.95L131.14-5.95Q131.14-7.81 132.16-12.93L132.16-12.93L133.06-17.79L133.06-17.79Q134.14-23.36 134.14-25.41L134.14-25.41L134.14-25.41Q134.14-28.99 132.16-28.99L132.16-28.99L132.16-28.99Q129.66-28.99 128.06-25.34L128.06-25.34L128.06-25.34Q127.42-23.94 126.98-21.82L126.98-21.82L122.62 0L109.76 1.28L118.78-44.80L131.65-46.08L131.14-43.52L131.14-43.52Q129.34-33.66 127.81-30.34L127.81-30.34L127.81-30.34Q131.39-33.92 137.98-33.92L137.98-33.92L137.98-33.92Q144.96-33.92 146.24-29.31L146.24-29.31L146.24-29.31Q146.69-27.84 146.69-26.56L146.69-26.56L146.69-26.56Q146.69-25.28 146.59-24.29L146.59-24.29L146.59-24.29Q146.50-23.30 146.18-21.50L146.18-21.50L145.34-16.90L143.87-9.66L143.87-9.66Q143.55-8.19 143.55-7.10ZM154.40-1.92L154.40-1.92L154.40-1.92Q152.90-3.58 152.22-6.21L152.22-6.21L152.22-6.21Q151.55-8.83 151.55-13.12L151.55-13.12L151.55-13.12Q151.55-17.41 153.02-21.31L153.02-21.31L153.02-21.31Q154.50-25.22 157.18-28.03L157.18-28.03L157.18-28.03Q162.69-33.92 171.78-33.92L171.78-33.92L171.78-33.92Q175.04-33.92 177.41-32.83L177.41-32.83L188.35-33.92L183.62-8.96L183.62-8.96Q183.42-8.19 183.42-6.78L183.42-6.78L183.42-6.78Q183.42-5.38 184.29-4.48L184.29-4.48L184.29-4.48Q185.15-3.58 186.43-3.46L186.43-3.46L186.43-3.46Q185.79-1.28 183.46 0L183.46 0L183.46 0Q181.12 1.28 178.50 1.28L178.50 1.28L178.50 1.28Q175.87 1.28 174.11 0.29L174.11 0.29L174.11 0.29Q172.35-0.70 171.84-2.37L171.84-2.37L171.84-2.37Q170.82-0.77 168.64 0.26L168.64 0.26L168.64 0.26Q166.46 1.28 163.55 1.28L163.55 1.28L163.55 1.28Q160.64 1.28 158.27 0.51L158.27 0.51L158.27 0.51Q155.90-0.26 154.40-1.92ZM167.90-27.90L167.90-27.90L167.90-27.90Q167.17-26.75 166.53-24.80L166.53-24.80L166.53-24.80Q165.89-22.85 164.83-17.63L164.83-17.63L164.83-17.63Q163.78-12.42 163.78-8.70L163.78-8.70L163.78-8.70Q163.78-4.99 164.35-3.90L164.35-3.90L164.35-3.90Q164.93-2.82 165.95-2.82L165.95-2.82L165.95-2.82Q168.00-2.82 169.50-4.77L169.50-4.77L169.50-4.77Q171.01-6.72 171.58-10.18L171.58-10.18L174.98-28.93L174.98-28.93Q173.63-30.08 172.06-30.08L172.06-30.08L172.06-30.08Q170.50-30.08 169.57-29.57L169.57-29.57L169.57-29.57Q168.64-29.06 167.90-27.90ZM217.47-10.82L217.47-10.82L217.47-10.82Q219.07-9.73 219.07-7.33L219.07-7.33L219.07-7.33Q219.07-4.93 217.86-3.39L217.86-3.39L217.86-3.39Q216.64-1.86 214.66-0.83L214.66-0.83L214.66-0.83Q210.56 1.28 206.14 1.28L206.14 1.28L206.14 1.28Q201.73 1.28 199.14 0.32L199.14 0.32L199.14 0.32Q196.54-0.64 194.82-2.43L194.82-2.43L194.82-2.43Q191.42-5.82 191.42-12.03L191.42-12.03L191.42-12.03Q191.42-21.70 196.67-27.58L196.67-27.58L196.67-27.58Q202.30-33.92 212.10-33.92L212.10-33.92L212.10-33.92Q218.18-33.92 221.18-31.36L221.18-31.36L221.18-31.36Q223.42-29.44 223.42-26.30L223.42-26.30L223.42-26.30Q223.42-15.04 203.97-15.04L203.97-15.04L203.97-15.04Q203.71-13.38 203.71-11.97L203.71-11.97L203.71-11.97Q203.71-9.02 205.02-7.90L205.02-7.90L205.02-7.90Q206.34-6.78 208.77-6.78L208.77-6.78L208.77-6.78Q211.20-6.78 213.79-7.90L213.79-7.90L213.79-7.90Q216.38-9.02 217.47-10.82ZM204.42-17.79L204.42-17.79L204.42-17.79Q208.96-17.79 211.58-20.61L211.58-20.61L211.58-20.61Q214.21-23.30 214.21-27.58L214.21-27.58L214.21-27.58Q214.21-29.06 213.66-29.86L213.66-29.86L213.66-29.86Q213.12-30.66 212.03-30.66L212.03-30.66L212.03-30.66Q210.94-30.66 210.02-30.24L210.02-30.24L210.02-30.24Q209.09-29.82 208.13-28.42L208.13-28.42L208.13-28.42Q205.76-25.22 204.42-17.79ZM240.90-3.52L240.90-3.52L240.90-3.52Q238.91 1.28 232.58 1.28L232.58 1.28L232.58 1.28Q229.38 1.28 227.33-0.96L227.33-0.96L227.33-0.96Q225.66-2.82 225.66-4.93L225.66-4.93L225.66-4.93Q225.66-9.73 227.90-20.22L227.90-20.22L232.58-44.80L245.57-46.08L239.36-13.70L239.36-13.70Q238.27-8.96 238.27-7.30L238.27-7.30L238.27-7.30Q238.27-3.65 240.90-3.52ZM261.12-39.68L261.12-39.68L261.12-39.68Q262.98-43.52 268.13-43.52L268.13-43.52L268.13-43.52Q273.28-43.52 275.68-40.54L275.68-40.54L275.68-40.54Q278.08-37.57 278.08-30.72L278.08-30.72L278.08-7.87L293.63-42.18L301.25-42.18L281.34 0L266.37 0L264.45-30.72L264.45-30.72Q264.26-34.11 263.33-36.42L263.33-36.42L263.33-36.42Q262.40-38.72 261.12-39.68ZM300.45-1.92L300.45-1.92L300.45-1.92Q298.94-3.58 298.27-6.21L298.27-6.21L298.27-6.21Q297.60-8.83 297.60-13.12L297.60-13.12L297.60-13.12Q297.60-17.41 299.07-21.31L299.07-21.31L299.07-21.31Q300.54-25.22 303.23-28.03L303.23-28.03L303.23-28.03Q308.74-33.92 317.82-33.92L317.82-33.92L317.82-33.92Q321.09-33.92 323.46-32.83L323.46-32.83L334.40-33.92L329.66-8.96L329.66-8.96Q329.47-8.19 329.47-6.78L329.47-6.78L329.47-6.78Q329.47-5.38 330.34-4.48L330.34-4.48L330.34-4.48Q331.20-3.58 332.48-3.46L332.48-3.46L332.48-3.46Q331.84-1.28 329.50 0L329.50 0L329.50 0Q327.17 1.28 324.54 1.28L324.54 1.28L324.54 1.28Q321.92 1.28 320.16 0.29L320.16 0.29L320.16 0.29Q318.40-0.70 317.89-2.37L317.89-2.37L317.89-2.37Q316.86-0.77 314.69 0.26L314.69 0.26L314.69 0.26Q312.51 1.28 309.60 1.28L309.60 1.28L309.60 1.28Q306.69 1.28 304.32 0.51L304.32 0.51L304.32 0.51Q301.95-0.26 300.45-1.92ZM313.95-27.90L313.95-27.90L313.95-27.90Q313.22-26.75 312.58-24.80L312.58-24.80L312.58-24.80Q311.94-22.85 310.88-17.63L310.88-17.63L310.88-17.63Q309.82-12.42 309.82-8.70L309.82-8.70L309.82-8.70Q309.82-4.99 310.40-3.90L310.40-3.90L310.40-3.90Q310.98-2.82 312-2.82L312-2.82L312-2.82Q314.05-2.82 315.55-4.77L315.55-4.77L315.55-4.77Q317.06-6.72 317.63-10.18L317.63-10.18L321.02-28.93L321.02-28.93Q319.68-30.08 318.11-30.08L318.11-30.08L318.11-30.08Q316.54-30.08 315.62-29.57L315.62-29.57L315.62-29.57Q314.69-29.06 313.95-27.90ZM358.40-2.69L358.40-2.69L358.40-2.69Q355.33 1.28 347.71 1.28L347.71 1.28L347.71 1.28Q343.74 1.28 340.86-1.12L340.86-1.12L340.86-1.12Q337.98-3.52 337.98-6.98L337.98-6.98L337.98-6.98Q337.98-8.90 338.18-9.86L338.18-9.86L342.46-32.64L355.46-33.92L350.78-9.22L350.78-9.22Q350.53-7.81 350.53-6.98L350.53-6.98L350.53-6.98Q350.53-3.26 352.77-3.26L352.77-3.26L352.77-3.26Q355.26-3.26 357.06-6.66L357.06-6.66L357.06-6.66Q357.63-7.74 357.89-9.15L357.89-9.15L362.43-32.64L375.04-33.92L370.30-8.96L370.30-8.96Q370.11-8 370.11-6.98L370.11-6.98L370.11-6.98Q370.11-5.95 370.69-4.83L370.69-4.83L370.69-4.83Q371.26-3.71 373.12-3.46L373.12-3.46L373.12-3.46Q372.74-1.92 371.39-0.90L371.39-0.90L371.39-0.90Q368.58 1.28 365.54 1.28L365.54 1.28L365.54 1.28Q362.50 1.28 360.70 0.19L360.70 0.19L360.70 0.19Q358.91-0.90 358.40-2.69ZM379.52-6.40L379.52-6.40L379.52-6.40Q379.52-8.13 380.42-12.48L380.42-12.48L383.81-29.76L380.03-29.76L380.29-31.68L380.29-31.68Q387.97-33.98 395.39-39.62L395.39-39.62L398.46-39.62L396.93-32.64L401.92-32.64L401.34-29.76L396.42-29.76L393.15-12.48L393.15-12.48Q392.32-8.51 392.32-7.17L392.32-7.17L392.32-7.17Q392.32-4.10 395.01-3.46L395.01-3.46L395.01-3.46Q394.37-1.28 392.06 0L392.06 0L392.06 0Q389.76 1.28 386.50 1.28L386.50 1.28L386.50 1.28Q383.23 1.28 381.38-0.77L381.38-0.77L381.38-0.77Q379.52-2.82 379.52-6.40ZM415.30 1.28L415.30 1.28L415.30 1.28Q401.22 1.28 401.22-11.97L401.22-11.97L401.22-11.97Q401.22-21.38 406.40-27.46L406.40-27.46L406.40-27.46Q411.90-33.92 421.44-33.92L421.44-33.92L421.44-33.92Q428.35-33.92 431.87-30.72L431.87-30.72L431.87-30.72Q435.39-27.52 435.39-20.80L435.39-20.80L435.39-20.80Q435.39-10.56 429.89-4.61L429.89-4.61L429.89-4.61Q424.51 1.28 415.30 1.28ZM416.96-26.56L416.96-26.56L416.96-26.56Q416.19-24.83 415.58-22.24L415.58-22.24L415.58-22.24Q414.98-19.65 414.21-15.55L414.21-15.55L414.21-15.55Q413.44-11.46 413.44-6.40L413.44-6.40L413.44-6.40Q413.44-4.74 413.98-3.65L413.98-3.65L413.98-3.65Q414.53-2.56 416-2.56L416-2.56L416-2.56Q417.47-2.56 418.40-3.26L418.40-3.26L418.40-3.26Q419.33-3.97 420.03-5.63L420.03-5.63L420.03-5.63Q421.31-8.58 422.34-14.05L422.34-14.05L422.34-14.05Q423.36-19.52 423.46-21.89L423.46-21.89L423.46-21.89Q423.55-24.26 423.55-26.02L423.55-26.02L423.55-26.02Q423.55-27.78 423.04-28.93L423.04-28.93L423.04-28.93Q422.53-30.08 421.09-30.08L421.09-30.08L421.09-30.08Q419.65-30.08 418.69-29.18L418.69-29.18L418.69-29.18Q417.73-28.29 416.96-26.56ZM459.71-2.69L459.71-2.69L459.71-2.69Q456.64 1.28 449.02 1.28L449.02 1.28L449.02 1.28Q445.06 1.28 442.18-1.12L442.18-1.12L442.18-1.12Q439.30-3.52 439.30-6.98L439.30-6.98L439.30-6.98Q439.30-8.90 439.49-9.86L439.49-9.86L443.78-32.64L456.77-33.92L452.10-9.22L452.10-9.22Q451.84-7.81 451.84-6.98L451.84-6.98L451.84-6.98Q451.84-3.26 454.08-3.26L454.08-3.26L454.08-3.26Q456.58-3.26 458.37-6.66L458.37-6.66L458.37-6.66Q458.94-7.74 459.20-9.15L459.20-9.15L463.74-32.64L476.35-33.92L471.62-8.96L471.62-8.96Q471.42-8 471.42-6.98L471.42-6.98L471.42-6.98Q471.42-5.95 472.00-4.83L472.00-4.83L472.00-4.83Q472.58-3.71 474.43-3.46L474.43-3.46L474.43-3.46Q474.05-1.92 472.70-0.90L472.70-0.90L472.70-0.90Q469.89 1.28 466.85 1.28L466.85 1.28L466.85 1.28Q463.81 1.28 462.02 0.19L462.02 0.19L462.02 0.19Q460.22-0.90 459.71-2.69ZM499.84-17.98L499.84-17.98L499.84-17.98Q502.14-22.08 502.14-26.24L502.14-26.24L502.14-26.24Q502.14-28.99 500.16-28.99L500.16-28.99L500.16-28.99Q498.62-28.99 497.02-26.37L497.02-26.37L497.02-26.37Q495.36-23.74 494.85-20.35L494.85-20.35L491.52 0L478.27 1.28L484.80-32.64L495.36-33.92L494.21-27.46L494.21-27.46Q497.34-33.92 504.38-33.92L504.38-33.92L504.38-33.92Q508.10-33.92 510.11-32L510.11-32L510.11-32Q512.13-30.08 512.13-26.14L512.13-26.14L512.13-26.14Q512.13-22.21 509.54-19.71L509.54-19.71L509.54-19.71Q506.94-17.22 502.53-17.22L502.53-17.22L502.53-17.22Q500.61-17.22 499.84-17.98Z" fill="#ccc"></path></g></g><style>text {
  font-size: 64px;
  font-family: Arial Black;
  dominant-baseline: central;
  text-anchor: middle;
}</style></svg>